<?xml version="1.0" encoding="UTF-8"?>
<svg xmlns="http://www.w3.org/2000/svg" xmlns:xlink="http://www.w3.org/1999/xlink" version="1.1" id="ROSSMANN_Fotowelt_Logo_Schutzzone" x="0px" y="0px" viewBox="0 0 280 44" style="enable-background:new 0 0 280 44;" xml:space="preserve">
<style type="text/css">
	.st0{fill:#565656;}
	.st1{fill:#C3002D;}
</style>
<g>
	<path class="st0" d="M52.4,26.1c0,5.7-1,11.6-8.2,11.7c-7.2-0.1-8.2-5.9-8.2-11.7c0-5.7,1-11.6,8.2-11.7   C51.4,14.5,52.4,20.4,52.4,26.1 M44.2,8.7c-10.4,0.1-16.8,6.8-16.8,17.4v0c0,10.6,6.4,17.2,16.8,17.4l0,0   c10.3-0.1,16.8-6.7,16.8-17.2v-0.1C61,15.5,54.5,8.9,44.2,8.7"></path>
	<path class="st0" d="M116.1,26.1c0,5.7-1,11.6-8.2,11.7c-7.2-0.1-8.2-5.9-8.2-11.7c0-5.7,1-11.6,8.2-11.7   C115.1,14.5,116.1,20.4,116.1,26.1 M107.8,8.7C97.5,8.9,91,15.5,91,26.1v0c0,10.6,6.4,17.2,16.8,17.4l0,0   c10.3-0.1,16.8-6.8,16.8-17.3v-0.1C124.6,15.5,118.2,8.9,107.8,8.7"></path>
	<path class="st0" d="M2.2,13.2V43H10V29.6h11.6v-6.5H10v-7.4h15V9.3H6.1C3.8,9.3,2.2,11.1,2.2,13.2"></path>
	<path class="st0" d="M62.6,15.8h9.5v23.3c0,2.1,1.7,3.9,3.9,3.9h3.9V15.8h9.6V9.3H62.6V15.8z"></path>
	<path class="st0" d="M157.4,37.2l-6.3-19h-4.6l-6.3,19l-6.8-27.9h-4.7l7.8,30.8c0.5,1.9,1.4,2.9,3,2.9h3.1l6.1-19.9L155,43h3.2   c1.4,0,2.4-1,2.7-2.4l7.8-31.3h-4.7L157.4,37.2L157.4,37.2z"></path>
	<path class="st0" d="M174.5,12.2v28c0,1.7,1.4,2.9,2.9,2.9h17.5v-3.9h-16.5v-12h14v-3.9h-14v-10h16.5V9.3c0,0-17.3,0-17.5,0   C175.8,9.3,174.5,10.6,174.5,12.2"></path>
	<path class="st0" d="M206.9,9.3h-4v30.8c0,1.9,1.6,2.9,2.9,2.9h17.4v-3.9h-16.3V9.3z"></path>
	<path class="st0" d="M218,9.3v3.9h11.8v26.9c0,1.4,1.1,2.8,2.9,2.8h1.2V13.2h11.8V9.3H218z"></path>
</g>
<path class="st1" d="M268.5,0.4c-6,0-11,4.9-11,11s4.9,11,11,11s11-4.9,11-11S274.5,0.4,268.5,0.4z M268.5,2.4  c2.7,0,5.2,1.2,6.8,3.1h-3.2l0.3-0.6c0.3-0.7-0.9-1.3-1.3-0.5l-0.6,1.1h-8.9C263.3,3.6,265.7,2.4,268.5,2.4L268.5,2.4z M259.4,11.4  c0-1.7,0.5-3.4,1.3-4.7c0,0,8.3,0.4,8.4,0.4s0.2,0,0.3,0.2c0.1,0.1,0.8,2,0.9,2.1c0,0.1,0,0.3-0.3,0.3c-0.4,0-7.6,0-8.1,0  s-1,0.4-1,1v3.1c0,0.2,0.1,0.5,0.2,0.6c0.2,0.3,0.6,0.4,0.7,0.4c0.1,0,0.1,0,0.1-0.1s0-3.8,0-3.9c0-0.1,0.1-0.1,0.1-0.1s0.9,0,0.9,0  s0.1,0,0,0.1c-0.3,0.4-0.4,0.8-0.4,1.5c0,1.1,0.8,1.9,1.1,2.1c0,0,0.1,0.1,0,0.2c0,0.1-0.8,1.6-0.8,1.6c0,0.1-0.1,0.2,0,0.3l4,3.9  C262.6,19.5,259.4,15.8,259.4,11.4L259.4,11.4z M268.9,20.4c0,0-3.8-3.8-4.1-4.1c-0.1-0.1,0-0.2,0-0.2c0-0.1,1.4-2.6,1.4-2.7  c0.1-0.1,0.2-0.1,0.2-0.1h0.9c0,0,0.1,0,0.1,0.1c-0.1,0.1-1.2,2.5-1.3,2.5c0,0.1,0,0.1,0,0.2c0,0.1,4.1,4.1,4.1,4.1  C269.9,20.3,269.4,20.4,268.9,20.4L268.9,20.4z M271.8,19.7l-3.6-3.6c-0.1-0.1,0-0.2,0-0.2l1.3-2.6c0.1-0.1,0.1-0.1,0.2-0.1h2.3  c0.1,0,0.1,0.1,0.1,0.1l-0.6,1.4c0,0,0,0.1,0,0.2l0.8,0.5c0.1,0.1,0.2,0,0.2-0.1c0,0,0.9-2.1,0.9-2.1c0.1-0.1,0.1-0.1,0.2-0.1h0.8  c0,0,0.1,0,0.1,0.1s-0.6,1.4-0.6,1.4c0,0,0,0.1,0,0.2l0.8,0.5c0.1,0.1,0.2,0,0.2-0.1c0-0.1,0.9-2.1,1-2.3c0.2-0.6,0.1-1.5-1-1.5  h-1.2c-0.1,0-0.2-0.1-0.2-0.2V7.3c0-0.2,0.1-0.3,0.2-0.3c0,0,2.3-0.4,2.3-0.4c0.8,1.4,1.3,3,1.3,4.7  C277.5,15.1,275.2,18.4,271.8,19.7L271.8,19.7z"></path>
</svg>
